<?xml version="1.0"?>
<svg xmlns="http://www.w3.org/2000/svg" height="512px" viewBox="-31 0 512 512" width="512px" class=""><g><path d="m405 512h-90c-8.289062 0-15-6.710938-15-15s6.710938-15 15-15h90c8.277344 0 15-6.722656 15-15s-6.722656-16-15-16h-180c-8.289062 0-15-6.710938-15-15s6.710938-15 15-15h180c24.8125 0 45 21.1875 45 46s-20.1875 45-45 45zm0 0" fill="#fdbf00" data-original="#FDBF00" class="active-path" data-old_color="#fdbf00" style="fill:#E14D4B"/><path d="m100.660156 38.402344c-60.445312 40.296875-100.660156 108.492187-100.660156 186.597656 0 124.265625 100.734375 226 225 226 78.007812 0 146.136719-41.113281 186.457031-101.433594zm0 0" fill="#ffd400" data-original="#FFD400" class="" data-old_color="#ffd400" style="fill:#FF6D6B"/><path d="m426.261719 299.390625-275.292969-275.652344-8.058594-8.066406c-15.058594 5.910156-28.976562 13.878906-42.253906 22.730469-20.597656 31.453125-33.453125 67.605468-36.367188 105.726562-5.007812 65.59375 18.765626 129.855469 65.246094 176.335938 42.582032 42.582031 99.402344 65.917968 158.847656 65.917968 8.175782 0 16.390626-.4375 24.640626-1.332031 35.613281-3.867187 69.089843-16.273437 98.433593-35.480469 8.859375-13.257812 16.84375-27.160156 22.769531-42.199218zm0 0" fill="#ffe470" data-original="#FFE470" class="" style="fill:#FF9290" data-old_color="#ffe470"/><path d="m225 0c-28.441406 0-55.613281 5.277344-82.089844 15.671875-9.402344 24.042969-14.890625 49.714844-15.558594 76.394531-.316406 12.765625.671876 25.3125 2.414063 37.671875l283.472656-27.796875c-40.1875-61.34375-109.425781-101.941406-188.238281-101.941406zm0 0" fill="#ffd400" data-original="#FFD400" class="" data-old_color="#ffd400" style="fill:#FF6D6B"/><path d="m413.238281 101.941406c-45.386719-30.492187-100.53125-44.265625-157.550781-35.890625-49.207031 7.246094-92.226562 29.789063-125.921875 63.6875 1.730469 12.292969 4.421875 24.320313 8.121094 36.027344 6.675781 21.136719 16.453125 41.148437 29.203125 59.539063l267.269531-82.3125c-5.671875-14.46875-12.71875-28.222657-21.121094-41.050782zm0 0" fill="#fdbf00" data-original="#FDBF00" class="active-path" data-old_color="#fdbf00" style="fill:#E14D4B"/><path d="m434.359375 142.992188c-18.792969-7.394532-44.460937-13.710938-67.167969-15.214844-64.761718-4.453125-128.171875 19.542968-174.007812 65.40625-9.832032 9.832031-18.292969 20.757812-26.09375 32.121094 17.917968 25.847656 38.855468 45.851562 64.542968 62.261718l215.875-94.292968c-2.613281-18.464844-7.488281-35.851563-13.148437-50.28125zm0 0" fill="#ffd400" data-original="#FFD400" class="" data-old_color="#ffd400" style="fill:#FF6D6B"/><path d="m447.507812 193.273438c-68.578124-9.90625-139.171874 12.058593-190.691406 63.542968-9.433594 9.433594-17.613281 19.886719-25.183594 30.75 57.65625 36.839844 132.5 47.320313 202.59375 19.800782 15.035157-38.148438 18.75-75.472657 13.28125-114.09375zm0 0" fill="#fdbf00" data-original="#FDBF00" class="active-path" data-old_color="#fdbf00" style="fill:#E14D4B"/></g> </svg>
